<?xml version="1.0" standalone="no"?>
<!DOCTYPE svg PUBLIC "-//W3C//DTD SVG 20010904//EN"
 "http://www.w3.org/TR/2001/REC-SVG-20010904/DTD/svg10.dtd">
<svg version="1.0" xmlns="http://www.w3.org/2000/svg"
 width="225.000000pt" height="225.000000pt" viewBox="0 0 225.000000 225.000000"
 preserveAspectRatio="xMidYMid meet">

<g transform="translate(0.000000,225.000000) scale(0.100000,-0.100000)"
fill="#000000" stroke="none">
<path d="M140 2040 l0 -70 153 0 c146 0 155 -1 175 -22 19 -21 27 -77 87 -618
39 -356 72 -612 81 -637 19 -51 84 -110 131 -119 41 -8 41 -14 4 -36 -41 -23
-64 -63 -64 -111 0 -62 26 -105 80 -129 61 -27 105 -18 155 32 34 33 38 43 38
86 0 60 -28 110 -73 129 -28 13 5 14 288 14 283 0 316 -1 288 -14 -50 -22 -75
-69 -70 -134 3 -47 9 -59 40 -87 48 -44 92 -52 151 -25 38 16 51 29 67 66 31
70 11 136 -54 175 l-32 20 53 0 52 0 0 70 0 70 -443 0 -444 0 -21 23 c-12 13
-23 42 -28 75 l-7 52 479 0 c478 0 479 0 519 23 80 45 88 66 165 452 39 192
70 353 70 357 0 4 -34 8 -75 8 l-75 0 0 -33 c0 -18 -27 -168 -60 -332 -54
-272 -62 -302 -85 -322 l-26 -23 -465 0 -464 0 0 23 c0 12 -25 234 -54 492
-36 322 -58 480 -69 501 -22 43 -80 91 -124 103 -21 6 -107 11 -190 11 l-153
0 0 -70z"/>
<path d="M897 1913 l-47 -48 122 -122 123 -123 -125 -125 -124 -125 49 -50 49
-50 126 125 125 125 125 -125 125 -125 50 50 50 50 -125 125 -125 125 123 123
122 123 -50 49 -50 49 -123 -122 -122 -122 -120 120 c-66 66 -122 120 -125
120 -3 0 -27 -21 -53 -47z"/>
</g>
</svg>
